<svg width="273" height="18" viewBox="0 0 273 18" fill="none" xmlns="http://www.w3.org/2000/svg">
<path d="M22.7617 13V4.41016H25.416C26.041 4.41016 26.502 4.46484 26.7988 4.57422C27.2051 4.72266 27.5293 4.99805 27.7715 5.40039C28.0137 5.80273 28.1348 6.29688 28.1348 6.88281C28.1348 7.65625 27.9375 8.28711 27.543 8.77539C27.1484 9.26367 26.4668 9.50781 25.498 9.50781H23.6934V13H22.7617ZM23.6934 8.49414H25.5156C26.0898 8.49414 26.5098 8.36523 26.7754 8.10742C27.041 7.8457 27.1738 7.45312 27.1738 6.92969C27.1738 6.58984 27.1074 6.29883 26.9746 6.05664C26.8457 5.81445 26.6875 5.64844 26.5 5.55859C26.3164 5.46875 25.9824 5.42383 25.498 5.42383H23.6934V8.49414ZM29.1953 5.62305V4.41016H30.0566V5.62305H29.1953ZM29.1953 13V6.77734H30.0566V13H29.1953ZM31.3633 13V4.41016H32.2246V13H31.3633ZM33.5781 5.62305V4.41016H34.4395V5.62305H33.5781ZM33.5781 13V6.77734H34.4395V13H33.5781ZM35.7695 13V4.41016H36.6309V7.49219C36.834 7.20703 37.0625 6.99414 37.3164 6.85352C37.5742 6.70898 37.8574 6.63672 38.166 6.63672C38.709 6.63672 39.1367 6.81055 39.4492 7.1582C39.7656 7.50195 39.9238 8.13477 39.9238 9.05664V13H39.0625V9.05664C39.0625 8.51758 38.9668 8.13086 38.7754 7.89648C38.584 7.66211 38.3203 7.54492 37.9844 7.54492C37.6094 7.54492 37.2891 7.69531 37.0234 7.99609C36.7617 8.29688 36.6309 8.83008 36.6309 9.5957V13H35.7695ZM44.084 13V4.41016H45.4844L47.1543 10.4922L47.4883 11.7637C47.5703 11.4473 47.6953 10.9883 47.8633 10.3867L49.5508 4.41016H50.8047V13H49.9082V5.81055L47.8574 13H47.0195L44.9805 5.6875V13H44.084ZM55.6797 10.9961L56.5703 11.1309C56.4219 11.7949 56.1523 12.2969 55.7617 12.6367C55.375 12.9727 54.8945 13.1406 54.3203 13.1406C53.5977 13.1406 53.0117 12.8672 52.5625 12.3203C52.1172 11.7695 51.8945 10.9766 51.8945 9.94141C51.8945 8.86719 52.1191 8.04883 52.5684 7.48633C53.0215 6.91992 53.5938 6.63672 54.2852 6.63672C54.9453 6.63672 55.4961 6.91406 55.9375 7.46875C56.3789 8.02344 56.5996 8.82617 56.5996 9.87695L56.5938 10.1582H52.7852C52.8203 10.8574 52.9824 11.3848 53.2715 11.7402C53.5605 12.0957 53.9121 12.2734 54.3262 12.2734C54.9746 12.2734 55.4258 11.8477 55.6797 10.9961ZM52.8379 9.29102H55.6855C55.6465 8.75195 55.5312 8.34961 55.3398 8.08398C55.0625 7.69727 54.709 7.50391 54.2793 7.50391C53.8926 7.50391 53.5625 7.66602 53.2891 7.99023C53.0156 8.31055 52.8652 8.74414 52.8379 9.29102ZM59.5879 12.0566L59.7051 12.9883C59.4668 13.0508 59.252 13.082 59.0605 13.082C58.7598 13.082 58.5176 13.0234 58.334 12.9062C58.1504 12.7852 58.0234 12.6211 57.9531 12.4141C57.8867 12.207 57.8535 11.7949 57.8535 11.1777V7.59766H57.2207V6.77734H57.8535V5.23633L58.7148 4.60352V6.77734H59.5879V7.59766H58.7148V11.2363C58.7148 11.5723 58.7402 11.7891 58.791 11.8867C58.8652 12.0273 59.0039 12.0977 59.207 12.0977C59.3047 12.0977 59.4316 12.084 59.5879 12.0566ZM60.0801 9.88867C60.0801 8.81445 60.3047 8.00391 60.7539 7.45703C61.207 6.91016 61.7793 6.63672 62.4707 6.63672C63.1504 6.63672 63.7188 6.91016 64.1758 7.45703C64.6328 8.00391 64.8613 8.79297 64.8613 9.82422C64.8613 10.9414 64.6367 11.7734 64.1875 12.3203C63.7383 12.8672 63.166 13.1406 62.4707 13.1406C61.7871 13.1406 61.2168 12.8672 60.7598 12.3203C60.3066 11.7695 60.0801 10.959 60.0801 9.88867ZM60.9648 9.88867C60.9648 10.6934 61.1113 11.293 61.4043 11.6875C61.6973 12.0781 62.0605 12.2734 62.4941 12.2734C62.9004 12.2734 63.248 12.0762 63.5371 11.6816C63.8301 11.2832 63.9766 10.6855 63.9766 9.88867C63.9766 9.08789 63.8301 8.49219 63.5371 8.10156C63.2441 7.70703 62.8809 7.50977 62.4473 7.50977C62.0371 7.50977 61.6875 7.70703 61.3984 8.10156C61.1094 8.49609 60.9648 9.0918 60.9648 9.88867ZM69.1855 13V12.2148C69.0293 12.5156 68.8281 12.7461 68.582 12.9062C68.3359 13.0625 68.0703 13.1406 67.7852 13.1406C67.1836 13.1406 66.6621 12.8574 66.2207 12.291C65.7832 11.7207 65.5645 10.9199 65.5645 9.88867C65.5645 9.18164 65.6621 8.58203 65.8574 8.08984C66.0527 7.59766 66.3125 7.23242 66.6367 6.99414C66.9648 6.75586 67.3281 6.63672 67.7266 6.63672C68.0117 6.63672 68.2754 6.71289 68.5176 6.86523C68.7637 7.01367 68.9668 7.22266 69.127 7.49219V4.41016H69.9941V13H69.1855ZM66.4492 9.89453C66.4492 10.6992 66.5879 11.2969 66.8652 11.6875C67.1465 12.0781 67.4727 12.2734 67.8438 12.2734C68.2109 12.2734 68.5293 12.0859 68.7988 11.7109C69.0684 11.3359 69.2031 10.7695 69.2031 10.0117C69.2031 9.14062 69.0684 8.50586 68.7988 8.10742C68.5293 7.70508 68.1895 7.50391 67.7793 7.50391C67.416 7.50391 67.1035 7.69727 66.8418 8.08398C66.5801 8.4668 66.4492 9.07031 66.4492 9.89453ZM74.8398 10.9961L75.7305 11.1309C75.582 11.7949 75.3125 12.2969 74.9219 12.6367C74.5352 12.9727 74.0547 13.1406 73.4805 13.1406C72.7578 13.1406 72.1719 12.8672 71.7227 12.3203C71.2773 11.7695 71.0547 10.9766 71.0547 9.94141C71.0547 8.86719 71.2793 8.04883 71.7285 7.48633C72.1816 6.91992 72.7539 6.63672 73.4453 6.63672C74.1055 6.63672 74.6562 6.91406 75.0977 7.46875C75.5391 8.02344 75.7598 8.82617 75.7598 9.87695L75.7539 10.1582H71.9453C71.9805 10.8574 72.1426 11.3848 72.4316 11.7402C72.7207 12.0957 73.0723 12.2734 73.4863 12.2734C74.1348 12.2734 74.5859 11.8477 74.8398 10.9961ZM71.998 9.29102H74.8457C74.8066 8.75195 74.6914 8.34961 74.5 8.08398C74.2227 7.69727 73.8691 7.50391 73.4395 7.50391C73.0527 7.50391 72.7227 7.66602 72.4492 7.99023C72.1758 8.31055 72.0254 8.74414 71.998 9.29102Z" fill="black"/>
<circle cx="7" cy="9" r="7" fill="#0D28A6"/>
<path d="M11 6L5.5 11.5L3 9" stroke="white" stroke-linecap="round" stroke-linejoin="round"/>
<rect x="89" y="8.5" width="28" height="1" fill="#0D28A6"/>
<path d="M151.727 13V4.41016H154.369C154.904 4.41016 155.328 4.49414 155.641 4.66211C155.953 4.82617 156.209 5.08398 156.408 5.43555C156.607 5.78711 156.707 6.17578 156.707 6.60156C156.707 6.99609 156.621 7.35156 156.449 7.66797C156.277 7.98438 156.035 8.23828 155.723 8.42969C156.133 8.57812 156.455 8.83203 156.689 9.19141C156.928 9.54688 157.047 9.98633 157.047 10.5098C157.047 11.0293 156.939 11.4863 156.725 11.8809C156.514 12.2715 156.23 12.5566 155.875 12.7363C155.52 12.9121 155.031 13 154.41 13H151.727ZM152.658 8.01953H154.182C154.58 8.01953 154.863 7.99219 155.031 7.9375C155.273 7.85547 155.459 7.71875 155.588 7.52734C155.721 7.33203 155.787 7.06836 155.787 6.73633C155.787 6.42773 155.727 6.17188 155.605 5.96875C155.488 5.76172 155.33 5.61914 155.131 5.54102C154.936 5.46289 154.582 5.42383 154.07 5.42383H152.658V8.01953ZM152.658 11.9863H154.41C154.797 11.9863 155.082 11.9512 155.266 11.8809C155.531 11.7793 155.732 11.6133 155.869 11.3828C156.01 11.1484 156.08 10.8555 156.08 10.5039C156.08 10.1797 156.014 9.90625 155.881 9.68359C155.748 9.45703 155.568 9.29297 155.342 9.19141C155.119 9.08594 154.768 9.0332 154.287 9.0332H152.658V11.9863ZM161.523 12.2324C161.234 12.5332 160.934 12.7598 160.621 12.9121C160.309 13.0645 159.984 13.1406 159.648 13.1406C159.117 13.1406 158.693 12.9805 158.377 12.6602C158.061 12.3398 157.902 11.9082 157.902 11.3652C157.902 11.0059 157.977 10.6875 158.125 10.4102C158.273 10.1328 158.477 9.91602 158.734 9.75977C158.992 9.60352 159.383 9.48828 159.906 9.41406C160.609 9.3125 161.125 9.19141 161.453 9.05078L161.459 8.78125C161.459 8.35547 161.383 8.05664 161.23 7.88477C161.016 7.63477 160.686 7.50977 160.24 7.50977C159.838 7.50977 159.537 7.59375 159.338 7.76172C159.139 7.92578 158.992 8.23633 158.898 8.69336L158.049 8.55273C158.17 7.88477 158.414 7.39844 158.781 7.09375C159.152 6.78906 159.682 6.63672 160.369 6.63672C160.904 6.63672 161.324 6.73828 161.629 6.94141C161.934 7.14062 162.125 7.38867 162.203 7.68555C162.285 7.98242 162.326 8.41602 162.326 8.98633V10.3926C162.326 11.377 162.344 11.998 162.379 12.2559C162.418 12.5098 162.492 12.7578 162.602 13H161.699C161.609 12.7852 161.551 12.5293 161.523 12.2324ZM161.453 9.87695C161.137 10.0332 160.666 10.166 160.041 10.2754C159.678 10.3379 159.424 10.4102 159.279 10.4922C159.135 10.5703 159.021 10.6836 158.939 10.832C158.861 10.9766 158.822 11.1445 158.822 11.3359C158.822 11.6328 158.914 11.8711 159.098 12.0508C159.281 12.2266 159.535 12.3145 159.859 12.3145C160.168 12.3145 160.447 12.2344 160.697 12.0742C160.951 11.9141 161.141 11.7012 161.266 11.4355C161.391 11.166 161.453 10.7754 161.453 10.2637V9.87695ZM163.645 15.3965L163.551 14.4062C163.742 14.4688 163.906 14.5 164.043 14.5C164.227 14.5 164.377 14.4629 164.494 14.3887C164.615 14.3145 164.715 14.1992 164.793 14.043C164.82 13.9883 164.934 13.6445 165.133 13.0117L163.193 6.77734H164.125L165.191 10.3809C165.324 10.8301 165.447 11.3105 165.561 11.8223C165.658 11.3379 165.775 10.8652 165.912 10.4043L167.002 6.77734H167.869L165.93 13.1055C165.676 13.9258 165.475 14.4727 165.326 14.7461C165.182 15.0234 165.016 15.2227 164.828 15.3438C164.645 15.4648 164.436 15.5254 164.201 15.5254C164.037 15.5254 163.852 15.4824 163.645 15.3965ZM171.918 12.2324C171.629 12.5332 171.328 12.7598 171.016 12.9121C170.703 13.0645 170.379 13.1406 170.043 13.1406C169.512 13.1406 169.088 12.9805 168.771 12.6602C168.455 12.3398 168.297 11.9082 168.297 11.3652C168.297 11.0059 168.371 10.6875 168.52 10.4102C168.668 10.1328 168.871 9.91602 169.129 9.75977C169.387 9.60352 169.777 9.48828 170.301 9.41406C171.004 9.3125 171.52 9.19141 171.848 9.05078L171.854 8.78125C171.854 8.35547 171.777 8.05664 171.625 7.88477C171.41 7.63477 171.08 7.50977 170.635 7.50977C170.232 7.50977 169.932 7.59375 169.732 7.76172C169.533 7.92578 169.387 8.23633 169.293 8.69336L168.443 8.55273C168.564 7.88477 168.809 7.39844 169.176 7.09375C169.547 6.78906 170.076 6.63672 170.764 6.63672C171.299 6.63672 171.719 6.73828 172.023 6.94141C172.328 7.14062 172.52 7.38867 172.598 7.68555C172.68 7.98242 172.721 8.41602 172.721 8.98633V10.3926C172.721 11.377 172.738 11.998 172.773 12.2559C172.812 12.5098 172.887 12.7578 172.996 13H172.094C172.004 12.7852 171.945 12.5293 171.918 12.2324ZM171.848 9.87695C171.531 10.0332 171.061 10.166 170.436 10.2754C170.072 10.3379 169.818 10.4102 169.674 10.4922C169.529 10.5703 169.416 10.6836 169.334 10.832C169.256 10.9766 169.217 11.1445 169.217 11.3359C169.217 11.6328 169.309 11.8711 169.492 12.0508C169.676 12.2266 169.93 12.3145 170.254 12.3145C170.562 12.3145 170.842 12.2344 171.092 12.0742C171.346 11.9141 171.535 11.7012 171.66 11.4355C171.785 11.166 171.848 10.7754 171.848 10.2637V9.87695ZM174.062 13V6.77734H174.842V7.7207C175.041 7.2832 175.223 6.99414 175.387 6.85352C175.555 6.70898 175.742 6.63672 175.949 6.63672C176.238 6.63672 176.533 6.75 176.834 6.97656L176.541 7.95508C176.326 7.80273 176.117 7.72656 175.914 7.72656C175.73 7.72656 175.562 7.79102 175.41 7.91992C175.258 8.04883 175.15 8.22852 175.088 8.45898C174.979 8.86133 174.924 9.28906 174.924 9.74219V13H174.062Z" fill="black"/>
<circle cx="136" cy="9" r="7" fill="#0D28A6"/>
<path d="M140 6L134.5 11.5L132 9" stroke="white" stroke-linecap="round" stroke-linejoin="round"/>
<rect x="189" y="8.5" width="28" height="1" fill="#0D28A6"/>
<path d="M253.566 13V5.42383H251.246V4.41016H256.83V5.42383H254.498V13H253.566ZM257.422 5.62305V4.41016H258.283V5.62305H257.422ZM257.422 13V6.77734H258.283V13H257.422ZM259.637 13V4.41016H260.498V9.30859L262.549 6.77734H263.668L261.717 9.08594L263.861 13H262.801L261.107 9.81836L260.498 10.5332V13H259.637ZM268.027 10.9961L268.918 11.1309C268.77 11.7949 268.5 12.2969 268.109 12.6367C267.723 12.9727 267.242 13.1406 266.668 13.1406C265.945 13.1406 265.359 12.8672 264.91 12.3203C264.465 11.7695 264.242 10.9766 264.242 9.94141C264.242 8.86719 264.467 8.04883 264.916 7.48633C265.369 6.91992 265.941 6.63672 266.633 6.63672C267.293 6.63672 267.844 6.91406 268.285 7.46875C268.727 8.02344 268.947 8.82617 268.947 9.87695L268.941 10.1582H265.133C265.168 10.8574 265.33 11.3848 265.619 11.7402C265.908 12.0957 266.26 12.2734 266.674 12.2734C267.322 12.2734 267.773 11.8477 268.027 10.9961ZM265.186 9.29102H268.033C267.994 8.75195 267.879 8.34961 267.688 8.08398C267.41 7.69727 267.057 7.50391 266.627 7.50391C266.24 7.50391 265.91 7.66602 265.637 7.99023C265.363 8.31055 265.213 8.74414 265.186 9.29102ZM271.936 12.0566L272.053 12.9883C271.814 13.0508 271.6 13.082 271.408 13.082C271.107 13.082 270.865 13.0234 270.682 12.9062C270.498 12.7852 270.371 12.6211 270.301 12.4141C270.234 12.207 270.201 11.7949 270.201 11.1777V7.59766H269.568V6.77734H270.201V5.23633L271.062 4.60352V6.77734H271.936V7.59766H271.062V11.2363C271.062 11.5723 271.088 11.7891 271.139 11.8867C271.213 12.0273 271.352 12.0977 271.555 12.0977C271.652 12.0977 271.779 12.084 271.936 12.0566Z" fill="black"/>
<circle cx="236" cy="9" r="6.5" fill="#0D28A6" stroke="#0D28A6"/>
<path d="M234.552 11.1104L235.274 10.9932C235.424 11.9307 235.803 12.3994 236.412 12.3994C236.741 12.3994 237.026 12.2611 237.267 11.9844C237.507 11.7044 237.628 11.3431 237.628 10.9004C237.628 10.4837 237.517 10.1484 237.296 9.89453C237.075 9.64062 236.803 9.51367 236.48 9.51367C236.344 9.51367 236.174 9.54622 235.973 9.61133L236.056 8.83984L236.168 8.84961C236.523 8.84961 236.811 8.74056 237.032 8.52246C237.254 8.30436 237.364 8.01302 237.364 7.64844C237.364 7.31315 237.271 7.0446 237.086 6.84277C236.9 6.6377 236.674 6.53516 236.407 6.53516C236.131 6.53516 235.896 6.64258 235.704 6.85742C235.515 7.06901 235.395 7.39128 235.343 7.82422L234.625 7.66797C234.716 7.05599 234.921 6.59375 235.24 6.28125C235.559 5.96875 235.945 5.8125 236.397 5.8125C236.873 5.8125 237.276 5.98828 237.608 6.33984C237.94 6.69141 238.106 7.13411 238.106 7.66797C238.106 7.99349 238.035 8.28158 237.892 8.53223C237.752 8.78288 237.555 8.97982 237.301 9.12305C237.535 9.18815 237.729 9.29557 237.882 9.44531C238.035 9.59505 238.159 9.79525 238.253 10.0459C238.347 10.2965 238.395 10.5765 238.395 10.8857C238.395 11.5433 238.201 12.082 237.813 12.502C237.426 12.9186 236.962 13.127 236.422 13.127C235.921 13.127 235.496 12.9447 235.147 12.5801C234.799 12.2155 234.601 11.7256 234.552 11.1104Z" fill="white"/>
</svg>
